<svg width="150" height="145" viewBox="0 0 150 145" fill="none" xmlns="http://www.w3.org/2000/svg">
<g clip-path="url(#clip0_2079_24202)">
<path d="M0.00012207 120.813H6.37775C12.6715 120.813 15.9727 124.412 15.9727 129.8C15.9727 135.188 12.6749 138.787 6.37775 138.787H0.00012207V120.809V120.813ZM6.37775 135.547C10.5277 135.547 12.3964 133.292 12.3964 129.8C12.3964 126.308 10.5277 124.084 6.37775 124.084H3.51939V135.547H6.37775Z" fill="black"/>
<path d="M18.2507 130.9C18.2507 126.804 20.6696 124.852 24.2157 124.852C27.7618 124.852 30.1538 126.804 30.1538 130.954V131.038H26.9097V130.9C26.9097 128.703 25.8093 127.905 24.2157 127.905C22.6221 127.905 21.5217 128.703 21.5217 130.9V138.791H18.2507V130.9Z" fill="black"/>
<path d="M31.858 121.279C31.858 120.014 32.7639 119.078 34.0286 119.078C35.2934 119.078 36.1992 120.014 36.1992 121.279C36.1992 122.544 35.2934 123.45 34.0286 123.45C32.7639 123.45 31.858 122.544 31.858 121.279ZM32.3814 125.211H35.6524V138.791H32.3814V125.211Z" fill="black"/>
<path d="M37.9337 125.211H41.5067L45.2742 135.795L49.0417 125.211H52.5341L47.1999 138.791H43.268L37.9337 125.211Z" fill="black"/>
<path d="M53.1616 132.001C53.1616 127.878 56.1844 124.855 60.4753 124.855C64.7661 124.855 67.7319 127.878 67.7319 132.001V133.155H56.6004C57.0399 135.134 58.5529 136.177 60.4753 136.177C61.9313 136.177 63.0048 135.765 63.6926 134.886H67.185C66.1685 137.469 63.6926 139.146 60.4786 139.146C56.1911 139.146 53.165 136.124 53.165 132.001H53.1616ZM64.2663 130.545C63.7429 128.73 62.2601 127.824 60.4719 127.824C58.6838 127.824 57.2009 128.76 56.6775 130.545H64.2663Z" fill="black"/>
<path d="M70.3688 120.813H78.974C82.3826 120.813 84.1707 122.765 84.1707 125.486C84.1707 127.301 83.3186 128.703 81.8357 129.444V129.498C83.8151 130.132 84.996 131.779 84.996 133.923C84.996 136.727 83.1811 138.787 79.692 138.787H70.3721V120.809L70.3688 120.813ZM78.5312 128.096C79.9872 128.096 80.675 127.217 80.675 126.09C80.675 124.962 80.1248 124.084 78.5044 124.084H73.8847V128.096H78.5312ZM79.0814 135.547C80.732 135.547 81.3896 134.584 81.3896 133.403C81.3896 132.222 80.5643 131.232 79.1082 131.232H73.8847V135.547H79.0814Z" fill="black"/>
<path d="M87.0525 132.276V125.211H90.3235V132.276C90.3235 134.859 91.699 136.097 93.7589 136.097C95.8188 136.097 97.1943 134.859 97.1943 132.276V125.211H100.465V132.276C100.465 136.811 97.7713 139.149 93.7589 139.149C89.7465 139.149 87.0525 136.841 87.0525 132.276Z" fill="black"/>
<path d="M102.613 131.863C102.613 127.217 106.075 124.855 109.376 124.855C111.329 124.855 112.949 125.68 113.912 127.19V119.273H117.183V131.89C117.183 136.288 114.214 139.146 109.953 139.146C105.692 139.146 102.613 136.177 102.613 131.863ZM113.908 132.001C113.908 129.609 112.315 127.905 109.923 127.905C107.531 127.905 105.91 129.609 105.91 132.001C105.91 134.393 107.531 136.097 109.923 136.097C112.315 136.097 113.908 134.393 113.908 132.001Z" fill="black"/>
<path d="M119.323 131.863C119.323 127.217 122.785 124.855 126.087 124.855C128.039 124.855 129.66 125.68 130.622 127.19V119.273H133.893V131.89C133.893 136.288 130.924 139.146 126.664 139.146C122.403 139.146 119.323 136.177 119.323 131.863ZM130.622 132.001C130.622 129.609 129.029 127.905 126.637 127.905C124.245 127.905 122.624 129.609 122.624 132.001C122.624 134.393 124.245 136.097 126.637 136.097C129.029 136.097 130.622 134.393 130.622 132.001Z" fill="black"/>
<path d="M136.695 140.273H139.966C140.516 141.538 141.586 142.115 143.237 142.115C145.464 142.115 146.729 141.042 146.729 138.405V136.701C145.904 138.183 144.475 138.982 142.687 138.982C139.553 138.982 136.584 136.949 136.584 132.108V125.208H139.855V132.108C139.855 134.691 141.23 135.929 143.29 135.929C145.35 135.929 146.726 134.638 146.726 132.108V125.208H149.997V138.321C149.997 143.048 147.001 144.947 143.233 144.947C140.073 144.947 137.46 143.491 136.691 140.273H136.695Z" fill="black"/>
<path d="M105.215 12.7411L105.037 12.56L104.678 12.201L104.497 12.0232C96.8776 4.58252 86.4607 0 74.9669 0C63.4731 0 53.0562 4.58252 45.4373 12.0232L45.2561 12.201L44.8971 12.56L44.7193 12.7411C37.2782 20.3597 32.6954 30.776 32.6954 42.2692C32.6954 53.7624 37.352 64.3465 44.8971 71.9784L74.9669 102.047L105.037 71.9784C112.582 64.3465 117.238 53.853 117.238 42.2692C117.238 30.6854 112.656 20.3597 105.215 12.7411ZM74.9669 16.1025C89.4197 16.1025 101.135 27.8172 101.135 42.2692C101.135 56.7212 89.4197 68.4358 74.9669 68.4358C60.5141 68.4358 48.7989 56.7212 48.7989 42.2692C48.7989 27.8172 60.5141 16.1025 74.9669 16.1025Z" fill="#1E3A8A"/>
<g filter="url(#filter0_d_2079_24202)">
<path d="M75.0196 68.4387C89.4718 68.4387 101.188 56.7228 101.188 42.2706C101.188 27.8184 89.4718 16.1025 75.0196 16.1025C60.5674 16.1025 48.8516 27.8184 48.8516 42.2706C48.8516 56.7228 60.5674 68.4387 75.0196 68.4387Z" fill="white"/>
</g>
<path d="M83.6943 37.5994C85.9177 37.5994 87.7202 35.797 87.7202 33.5737C87.7202 31.3504 85.9177 29.5481 83.6943 29.5481C81.4709 29.5481 79.6685 31.3504 79.6685 33.5737C79.6685 35.797 81.4709 37.5994 83.6943 37.5994Z" fill="white"/>
<g clip-path="url(#clip1_2079_24202)">
<path d="M87.456 31.7737C87.6908 32.4179 87.825 33.109 87.825 33.8336C87.825 37.1684 85.121 39.8724 81.7863 39.8724C78.4515 39.8724 75.7475 37.1684 75.7475 33.8336C75.7475 30.4989 78.4515 27.7949 81.7863 27.7949C82.0681 27.7949 82.3432 27.8217 82.6183 27.8586C80.3739 26.6743 77.8208 26 75.1067 26C66.2096 26 59 33.2096 59 42.1034C59 50.9971 66.2096 58.2067 75.1034 58.2067C83.9971 58.2067 91.2067 50.9971 91.2067 42.1034C91.2067 38.1715 89.7943 34.5717 87.456 31.7737Z" fill="url(#paint0_radial_2079_24202)"/>
</g>
</g>
<defs>
<filter id="filter0_d_2079_24202" x="48.6516" y="15.8025" width="54.3361" height="54.3362" filterUnits="userSpaceOnUse" color-interpolation-filters="sRGB">
<feFlood flood-opacity="0" result="BackgroundImageFix"/>
<feColorMatrix in="SourceAlpha" type="matrix" values="0 0 0 0 0 0 0 0 0 0 0 0 0 0 0 0 0 0 127 0" result="hardAlpha"/>
<feOffset dx="0.8" dy="0.7"/>
<feGaussianBlur stdDeviation="0.5"/>
<feColorMatrix type="matrix" values="0 0 0 0 0 0 0 0 0 0 0 0 0 0 0 0 0 0 0.25 0"/>
<feBlend mode="normal" in2="BackgroundImageFix" result="effect1_dropShadow_2079_24202"/>
<feBlend mode="normal" in="SourceGraphic" in2="effect1_dropShadow_2079_24202" result="shape"/>
</filter>
<radialGradient id="paint0_radial_2079_24202" cx="0" cy="0" r="1" gradientUnits="userSpaceOnUse" gradientTransform="translate(80.1332 34.3461) rotate(120.387) scale(25.4306 95.6155)">
<stop stop-color="#00FFFF"/>
<stop offset="1" stop-color="#02D4D4"/>
</radialGradient>
<clipPath id="clip0_2079_24202">
<rect width="150" height="144.946" fill="white"/>
</clipPath>
<clipPath id="clip1_2079_24202">
<rect width="32.2067" height="32.2067" fill="white" transform="translate(59 26)"/>
</clipPath>
</defs>
</svg>
